<?xml version="1.0" encoding="utf-8"?>
<!-- Generator: Adobe Illustrator 19.0.0, SVG Export Plug-In . SVG Version: 6.00 Build 0)  -->
<svg version="1.1" id="Layer_1" xmlns="http://www.w3.org/2000/svg" xmlns:xlink="http://www.w3.org/1999/xlink" x="0px" y="0px"
	 viewBox="0 0 51.4 50.4" style="enable-background:new 0 0 51.4 50.4;" xml:space="preserve">
<style type="text/css">
	.st0{fill:#FFFFFF;}
</style>
<g>
	<path class="st0" d="M25.6,0.2c4.4,0,8.8-0.1,13.2,0C45.5,0.3,51.2,6,51.3,12.9c0.1,8.2,0.2,16.3,0,24.5
		c-0.1,7.2-6.2,12.8-13.6,12.9c-8,0.1-16.1,0.1-24.1,0C5.8,50.3,0,44.3,0,36.6c0-7.7,0-15.4,0-23.2C0,6.9,4.7,1.3,11,0.3
		C13.5,0,16,0.1,18.6,0c2.4,0,4.7,0,7.1,0C25.6,0.1,25.6,0.1,25.6,0.2z M46.7,25.2c0-3.5,0-7,0-10.6c0-6.1-3.9-9.9-10-10
		c-7.3,0-14.6,0-22,0c-6.1,0-10,3.9-10,10.1c0,7,0,14,0,21c0,6,3.8,10,9.8,10c7.4,0.1,14.9,0.1,22.3,0c6-0.1,9.8-4,9.9-10
		C46.7,32.2,46.7,28.7,46.7,25.2z"/>
	<path class="st0" d="M12.7,25.2c0-7.2,5.8-12.9,12.9-13c7.2,0,12.9,5.7,13,12.9c0,7.2-5.8,13-13.1,12.9
		C18.5,38.1,12.7,32.3,12.7,25.2z M33.9,25.2c0-4.6-3.7-8.2-8.2-8.2c-4.5,0-8.2,3.7-8.2,8.2c0,4.5,3.7,8.2,8.3,8.2
		C30.3,33.4,33.9,29.8,33.9,25.2z"/>
	<path class="st0" d="M42.2,11.6c0,1.7-1.2,3-2.9,3c-1.7,0-3-1.3-3-2.9c0-1.6,1.3-3,2.9-3C40.9,8.6,42.2,9.9,42.2,11.6z"/>
</g>
</svg>
