<?xml version="1.0" encoding="utf-8"?>
<!-- Generator: Adobe Illustrator 19.0.0, SVG Export Plug-In . SVG Version: 6.00 Build 0)  -->
<svg version="1.1" id="Layer_2" xmlns="http://www.w3.org/2000/svg" xmlns:xlink="http://www.w3.org/1999/xlink" x="0px" y="0px"
	 viewBox="-293 384.8 24.5 24.5" style="enable-background:new -293 384.8 24.5 24.5;" xml:space="preserve">
<style type="text/css">
	.st0{fill:#FFFFFF;}
</style>
<path class="st0" d="M-274.8,387c1.1,0,2.2,0,3.4,0c2.5,1.8,3.2,3.9,1.8,7.1c-2,4.5-4.9,8.4-8.8,11.4c-3.3,2.6-5.9,1.7-7.3-2.3
	c-0.9-2.6-1.5-5.4-2.4-8c-0.5-1.5-1-3.3-3.3-1.8c-0.3,0.2-1.1-0.4-1.6-0.6c0-0.2,0-0.3,0-0.5c1.5-1.2,2.9-2.5,4.4-3.6
	c3.2-2.4,5.3-1.5,6.1,2.4c0.2,1.3,0.3,2.5,0.6,3.8c0.4,1.7,1,3.4,1.6,5.1c0.3,0,0.5,0,0.8,0.1c0.8-1.1,1.8-2.1,2.5-3.4
	c0.6-1.1,1.1-2.4,0.9-3.5c-0.1-0.6-1.8-0.9-3.4-1.7C-277.9,389.9-276.3,388.5-274.8,387z"/>
</svg>
