<?xml version="1.0" encoding="utf-8"?>
<!-- Generator: Adobe Illustrator 19.0.0, SVG Export Plug-In . SVG Version: 6.00 Build 0)  -->
<svg version="1.1" id="Capa_1" xmlns="http://www.w3.org/2000/svg" xmlns:xlink="http://www.w3.org/1999/xlink" x="0px" y="0px"
	 viewBox="-217 308.7 176.3 176.3" style="enable-background:new -217 308.7 176.3 176.3;" xml:space="preserve">
<style type="text/css">
	.st0{fill:#FFFFFF;}
</style>
<path class="st0" d="M-193,355c-4.3,16.1-2.1,33,6.2,47.4c11.1,19.3,31.9,31.3,54.2,31.3c8.4,0,16.7-1.7,24.5-5l32.5,56.3l13-7.5
	l-32.5-56.3c11.2-8.4,19.2-20.1,22.9-33.8c4.3-16.1,2.1-33-6.2-47.4c-11.1-19.3-31.9-31.3-54.2-31.3c-10.9,0-21.7,2.9-31.2,8.4
	C-178.3,325.4-188.7,338.9-193,355z M-132.7,323.7c16.9,0,32.7,9.1,41.2,23.8c6.3,11,8,23.8,4.7,36c-3.3,12.3-11.1,22.5-22.1,28.8
	c-7.2,4.2-15.4,6.4-23.7,6.4c-16.9,0-32.7-9.1-41.2-23.8c-6.3-11-8-23.8-4.7-36c3.3-12.3,11.1-22.5,22.1-28.8
	C-149.1,325.9-140.9,323.7-132.7,323.7z"/>
</svg>
